<svg width="580" height="580" viewBox="0 0 480 480" fill="none" xmlns="http://www.w3.org/2000/svg">
<path d="M240.647 63.79L262.4 170.25C262.848 172.442 265.45 173.39 267.203 172.001L352.481 104.394C353.334 103.717 354.501 104.699 353.981 105.655L302.042 201.131C300.971 203.099 302.358 205.504 304.598 205.563L413.471 208.441C414.561 208.47 414.825 209.973 413.811 210.371L312.498 250.21C310.411 251.03 309.93 253.767 311.61 255.251L393.152 327.245C393.968 327.966 393.207 329.288 392.174 328.944L288.866 294.506C286.742 293.798 284.619 295.582 284.95 297.796L301.016 405.244C301.177 406.321 299.746 406.843 299.175 405.916L242.222 313.293C241.051 311.388 238.283 311.388 237.111 313.293L180.158 405.916C179.588 406.843 178.156 406.321 178.317 405.244L194.384 297.796C194.715 295.582 192.592 293.798 190.468 294.506L87.16 328.944C86.1266 329.288 85.3653 327.966 86.1819 327.245L167.723 255.251C169.404 253.767 168.922 251.03 166.836 250.21L65.5227 210.371C64.5087 209.973 64.7731 208.47 65.8623 208.441L174.736 205.563C176.976 205.504 178.363 203.099 177.292 201.131L125.353 105.655C124.833 104.699 125.999 103.717 126.853 104.394L212.131 172.001C213.884 173.39 216.486 172.442 216.934 170.25L238.687 63.79C238.905 62.7236 240.429 62.7236 240.647 63.79Z" stroke="#88BCEF" stroke-width="2"/>
<path d="M178.548 74.3339L236.334 166.364C237.524 168.26 240.298 168.231 241.448 166.31L297.273 73.0776C297.832 72.1432 299.271 72.6495 299.121 73.7283L284.232 181.371C283.925 183.589 286.068 185.349 288.185 184.617L390.877 149.08C391.906 148.724 392.683 150.037 391.875 150.767L311.278 223.655C309.617 225.157 310.127 227.884 312.219 228.683L413.729 267.47C414.746 267.859 414.497 269.363 413.409 269.403L304.816 273.432C302.578 273.515 301.217 275.931 302.306 277.888L355.134 372.85C355.664 373.802 354.506 374.794 353.647 374.125L267.87 307.409C266.103 306.035 263.507 307.011 263.083 309.209L242.512 415.912C242.306 416.981 240.781 416.998 240.552 415.933L217.728 309.689C217.258 307.5 214.641 306.579 212.903 307.991L128.558 376.507C127.713 377.194 126.534 376.226 127.044 375.264L177.851 279.205C178.898 277.226 177.486 274.839 175.247 274.803L66.5932 273.073C65.5044 273.056 65.2237 271.557 66.2325 271.147L166.898 230.221C168.973 229.377 169.426 226.641 167.733 225.174L85.6115 154.008C84.7885 153.295 85.5369 151.966 86.5734 152.301L189.995 185.656C192.126 186.343 194.232 184.538 193.878 182.327L176.714 75.0236C176.542 73.9483 177.969 73.4116 178.548 74.3339Z" stroke="#5A5A5A" stroke-width="2"/>
</svg>
